<svg width="224" height="29" viewBox="0 0 224 29" fill="none" xmlns="http://www.w3.org/2000/svg">
<path d="M5.28 23V5.56L1.6 6.84L0 3.16L5.92 0.599998H11.04V23H5.28ZM27.3688 6.68C27.3688 5.4 26.7288 4.76 25.4488 4.76H21.9288C20.6488 4.76 20.0088 5.4 20.0088 6.68V16.92C20.0088 18.2 20.6488 18.84 21.9288 18.84H25.4488C26.7288 18.84 27.3688 18.2 27.3688 16.92V6.68ZM33.1288 16.92C33.1288 19.16 32.6168 20.792 31.5928 21.816C30.5901 22.8187 28.9688 23.32 26.7288 23.32H20.6488C18.4088 23.32 16.7768 22.8187 15.7528 21.816C14.7501 20.792 14.2488 19.16 14.2488 16.92V6.68C14.2488 4.44 14.7501 2.81867 15.7528 1.816C16.7768 0.791999 18.4088 0.279999 20.6488 0.279999H26.7288C28.9688 0.279999 30.5901 0.791999 31.5928 1.816C32.6168 2.81867 33.1288 4.44 33.1288 6.68V16.92ZM41.6063 16.28V23H36.0063V0.599998H41.6063V11.96H44.1663L47.6863 6.04H53.6063L48.8063 14.2L53.6063 23H47.6863L44.0063 16.28H41.6063ZM54.5538 18.2H60.3138V23H54.5538V18.2ZM76.795 23H70.555L79.035 0.599998H85.435L93.915 23H87.675L86.235 19H78.235L76.795 23ZM79.675 14.84H84.795L82.235 7.32L79.675 14.84ZM110.234 22.68C106.244 23.1067 102.724 23.32 99.6738 23.32C98.2231 23.32 97.0604 22.8827 96.1858 22.008C95.3111 21.1333 94.8738 19.9707 94.8738 18.52V11.16C94.8738 9.56 95.3218 8.312 96.2178 7.416C97.1351 6.49867 98.3938 6.04 99.9938 6.04H110.234V10.36H101.754C100.9 10.36 100.474 10.7867 100.474 11.64V17.88C100.474 18.2 100.58 18.4667 100.794 18.68C101.007 18.8933 101.274 19 101.594 19C103.514 19 106.394 18.84 110.234 18.52V22.68ZM119.508 18.84C120.638 18.84 121.918 18.6267 123.348 18.2V16.28H118.708C118.388 16.28 118.121 16.3867 117.908 16.6C117.694 16.8133 117.588 17.08 117.588 17.4V17.72C117.588 18.04 117.694 18.3067 117.908 18.52C118.121 18.7333 118.388 18.84 118.708 18.84H119.508ZM113.588 6.36C117.492 5.93333 121.012 5.72 124.148 5.72C125.598 5.72 126.761 6.15733 127.635 7.032C128.51 7.90667 128.948 9.06933 128.948 10.52V23H123.988L123.668 21.4C122.665 22.0613 121.63 22.552 120.564 22.872C119.518 23.1707 118.633 23.32 117.908 23.32H116.788C115.337 23.32 114.174 22.8827 113.299 22.008C112.425 21.1333 111.988 19.9707 111.988 18.52V17.08C111.988 15.6293 112.425 14.4667 113.299 13.592C114.174 12.7173 115.337 12.28 116.788 12.28H123.348V11C123.348 10.68 123.241 10.4133 123.028 10.2C122.814 9.98667 122.548 9.88 122.228 9.88C120.841 9.88 119.305 9.944 117.62 10.072C115.956 10.2 114.612 10.296 113.588 10.36V6.36ZM143.819 23L143.499 21.4C142.496 22.0613 141.461 22.552 140.395 22.872C139.349 23.1707 138.464 23.32 137.739 23.32H136.299C134.848 23.32 133.685 22.8827 132.811 22.008C131.936 21.1333 131.499 19.9707 131.499 18.52V11.16C131.499 9.56 131.947 8.312 132.843 7.416C133.76 6.49867 135.019 6.04 136.619 6.04H143.179V0.599998H148.779V23H143.819ZM139.339 18.68C140.469 18.68 141.749 18.4667 143.179 18.04V10.36H138.379C137.525 10.36 137.099 10.7867 137.099 11.64V17.56C137.099 17.88 137.205 18.1467 137.419 18.36C137.632 18.5733 137.899 18.68 138.219 18.68H139.339ZM158.535 9.72C157.682 9.72 157.255 10.1467 157.255 11V12.76H162.695V11C162.695 10.1467 162.268 9.72 161.415 9.72H158.535ZM167.655 22.68C163.538 23.1067 159.804 23.32 156.455 23.32C155.004 23.32 153.842 22.8827 152.967 22.008C152.092 21.1333 151.655 19.9707 151.655 18.52V10.84C151.655 9.24 152.103 7.992 152.999 7.096C153.916 6.17867 155.175 5.72 156.775 5.72H163.175C164.775 5.72 166.023 6.17867 166.919 7.096C167.836 7.992 168.295 9.24 168.295 10.84V16.76H157.255V18.04C157.255 18.36 157.362 18.6267 157.575 18.84C157.788 19.0533 158.055 19.16 158.375 19.16C160.487 19.16 163.58 19 167.655 18.68V22.68ZM182.523 5.72C184.251 5.72 185.584 6.36 186.523 7.64C187.504 6.97867 188.56 6.49867 189.691 6.2C190.843 5.88 191.867 5.72 192.763 5.72H193.083C194.533 5.72 195.696 6.15733 196.571 7.032C197.445 7.90667 197.883 9.06933 197.883 10.52V23H192.283V11.48C192.283 11.16 192.176 10.8933 191.963 10.68C191.749 10.4667 191.483 10.36 191.163 10.36H191.003C190.043 10.36 188.816 10.5733 187.323 11V23H181.723V11.48C181.723 11.16 181.616 10.8933 181.403 10.68C181.189 10.4667 180.923 10.36 180.603 10.36H180.443C179.483 10.36 178.256 10.5733 176.763 11V23H171.163V6.04H176.123L176.443 7.64C177.445 6.97867 178.469 6.49867 179.515 6.2C180.581 5.88 181.477 5.72 182.203 5.72H182.523ZM205.236 28.76C204.106 28.76 202.719 28.6533 201.076 28.44V24.28H203.956C204.767 24.28 205.29 24.056 205.524 23.608C205.78 23.16 205.738 22.5307 205.396 21.72L198.836 6.04H204.756L208.756 16.92L212.116 6.04H218.036L211.636 23.64C211.018 25.3253 210.218 26.5947 209.236 27.448C208.255 28.3227 206.922 28.76 205.236 28.76ZM217.398 18.2H223.158V23H217.398V18.2Z" fill="#F9FDFE"/>
</svg>
